<svg width="463" height="132" viewBox="0 0 463 132" fill="none" xmlns="http://www.w3.org/2000/svg">
<path d="M0.267172 130.796V126.496L72.1632 7.3V6.268L100.027 5.23599V8.33199L28.6472 127.012V128.904L0.267172 130.796ZM0.267172 132V127.7H66.8312C72.5645 127.7 77.3805 125.98 81.2792 122.54C85.2925 118.985 88.3885 114.341 90.5672 108.608C92.7458 102.76 93.8925 96.5107 94.0072 89.86H100.027V132H0.267172ZM7.14717 37.572V2.312H100.027V6.61199H40.3432C34.7245 6.61199 29.9085 8.04533 25.8952 10.912C21.8818 13.7787 18.7858 17.5627 16.6072 22.264C14.4285 26.8507 13.2818 31.9533 13.1672 37.572H7.14717ZM189.702 129.42L158.054 34.82H157.366L156.162 29.832L164.418 0.247994H169.578L212.75 129.42H189.702ZM104.734 132V127.7H146.014V132H104.734ZM138.274 91.408V87.108H194.002V91.408H138.274ZM169.062 132V127.7H228.058V132H169.062ZM119.526 129.42L164.418 0.247994H169.578L159.086 29.832L125.202 129.42H119.526ZM264.272 65.436V60.276H278.548C285.428 60.276 290.99 59.5307 295.232 58.04C299.59 56.5493 302.743 53.74 304.692 49.612C306.756 45.3693 307.788 39.292 307.788 31.38C307.788 24.3853 307.043 19.168 305.552 15.728C304.062 12.1733 301.768 9.76533 298.672 8.50399C295.691 7.24266 291.85 6.61199 287.148 6.61199H227.636V2.312H294.028C301.482 2.312 308.247 3.516 314.324 5.92399C320.516 8.21732 325.39 11.5427 328.944 15.9C332.614 20.2573 334.448 25.5893 334.448 31.896C334.448 38.5467 332.212 44.3947 327.74 49.44C323.268 54.4853 316.847 58.4413 308.476 61.308C300.22 64.06 290.244 65.436 278.548 65.436H264.272ZM227.636 132V127.7H291.964V132H227.636ZM246.556 129.42V2.312H269.604V129.42H246.556ZM334.448 132C328.83 132 323.727 130.911 319.14 128.732C314.668 126.553 311.114 123.515 308.476 119.616C305.839 115.603 304.406 110.959 304.176 105.684L303.66 92.096C303.316 83.0373 300.966 76.3293 296.608 71.972C292.251 67.6147 286.69 65.436 279.924 65.436L292.996 63.544H299.36V64.232C304.291 65.3787 308.992 67.6147 313.464 70.94C318.051 74.2653 321.835 78.2787 324.816 82.98C327.798 87.6813 329.288 92.784 329.288 98.288V107.232C329.288 115.144 330.148 120.533 331.868 123.4C333.588 126.267 336.684 127.7 341.156 127.7H347.692V132H334.448ZM423.851 129.42L392.203 34.82H391.515L390.311 29.832L398.567 0.247994H403.727L446.899 129.42H423.851ZM338.883 132V127.7H380.163V132H338.883ZM372.423 91.408V87.108H428.151V91.408H372.423ZM403.211 132V127.7H462.207V132H403.211ZM353.675 129.42L398.567 0.247994H403.727L393.235 29.832L359.351 129.42H353.675Z" fill="black"/>
</svg>
